Coordinates
version=1
nRows=14
nColumns=28
inDegrees=yes

Units are S.I. units (second, meters, Newtons, ...)
Angles are in degrees.

endheader
time	pelvis_tilt	pelvis_list	pelvis_rotation	pelvis_tx	pelvis_ty	pelvis_tz	hip_flexion_r	hip_adduction_r	hip_rotation_r	knee_angle_r	ankle_angle_r	subtalar_angle_r	mtp_angle_r	hip_flexion_l	hip_adduction_l	hip_rotation_l	knee_angle_l	socket_flexion	socket_adduction	socket_rotation	socket_tx	socket_ty	socket_tz	foot_flex	lumbar_extension	lumbar_bending	lumbar_rotation
      0.82083333	     -1.53352393	     -9.08964599	      7.73065364	      0.34913800	      0.97973347	      0.23474035	      9.48343874	     17.30069817	      5.22995900	    -18.67028351	      0.48963984	    -29.24844251	     -5.31033705	     26.74032160	    -12.80224068	      4.73618500	    -68.09240936	      2.84517235	      0.00000000	      0.00000000	      0.00000000	     -0.00104774	      0.00000000	     -1.30665002	     -5.13727800	      8.18108707	     -8.81819858
      0.82500000	     -1.70478846	     -8.68970967	      7.69691853	      0.35449817	      0.98095770	      0.23376089	      9.03666553	     16.74833537	      5.08767575	    -18.31609640	      0.38055068	    -28.89978484	     -5.00536519	     27.35571980	    -11.91731121	      5.02114876	    -67.34972710	      3.09087033	      0.00000000	      0.00000000	      0.00000000	     -0.00091845	      0.00000000	     -1.30445030	     -5.01420806	      7.77200846	     -8.69500075
      0.82916667	     -1.76301508	     -8.44650353	      7.54043875	      0.35959742	      0.98208239	      0.23325900	      8.47675004	     16.46972564	      5.31180078	    -17.94485811	      0.41804898	    -28.73435531	     -4.90063326	     28.08482310	    -11.35497894	      5.18962376	    -67.14614502	      2.94866720	      0.00000000	      0.00000000	      0.00000000	      0.00018498	      0.00000000	     -1.33124689	     -5.06384860	      7.54139963	     -8.61987967
      0.83333333	     -1.85174157	     -8.20610367	      7.41779787	      0.36483194	      0.98314828	      0.23267277	      7.93173101	     16.17478905	      5.48975230	    -17.53794326	      0.40160585	    -28.54257463	     -4.79523555	     28.78121520	    -10.78046475	      5.38900392	    -66.82485523	      2.80909960	      0.00000000	      0.00000000	      0.00000000	      0.00106668	      0.00000000	     -1.35442067	     -5.04971890	      7.30943035	     -8.50868678
      0.83750000	     -1.94024696	     -7.98406008	      7.29708077	      0.37009599	      0.98416403	      0.23216133	      7.40365107	     15.90134867	      5.62851579	    -17.14506265	      0.35815020	    -28.34985840	     -4.68967168	     29.45468997	    -10.25399760	      5.57308121	    -66.45027056	      2.66862873	      0.00000000	      0.00000000	      0.00000000	      0.00191264	      0.00000000	     -1.36794553	     -5.02831656	      7.09434793	     -8.39199586
      0.84166667	     -2.03017263	     -7.78278119	      7.16618974	      0.37538011	      0.98513799	      0.23174087	      6.88717538	     15.65364636	      5.75806278	    -16.76035045	      0.30306598	    -28.16945986	     -4.58783149	     30.11075459	     -9.78211622	      5.73910112	    -66.05056928	      2.49496891	      0.00000000	      0.00000000	      0.00000000	      0.00278221	      0.00000000	     -1.37546594	     -5.00574234	      6.89962955	     -8.27764164
      0.84583333	     -2.11024826	     -7.60298765	      7.02357043	      0.38065598	      0.98606933	      0.23138464	      6.37821674	     15.43663059	      5.88563986	    -16.39803570	      0.23976138	    -28.00966035	     -4.49368792	     30.74537865	     -9.36558149	      5.88110863	    -65.64233782	      2.27907912	      0.00000000	      0.00000000	      0.00000000	      0.00366537	      0.00000000	     -1.37624896	     -4.99297774	      6.73513644	     -8.16829072
      0.85000000	     -2.19648432	     -7.43879458	      6.89605246	      0.38602119	      0.98694186	      0.23111362	      5.86337426	     15.24624980	      6.03694096	    -16.00840993	      0.15511749	    -27.85464122	     -4.39750491	     31.36497948	     -8.98765865	      6.02046167	    -65.21477420	      2.01958874	      0.00000000	      0.00000000	      0.00000000	      0.00451154	      0.00000000	     -1.37446502	     -4.95621218	      6.56078031	     -8.05029333
      0.85416667	     -2.27368252	     -7.29956339	      6.74916559	      0.39135418	      0.98777446	      0.23089864	      5.36273808	     15.08751016	      6.18357071	    -15.64974158	      0.05809507	    -27.73090366	     -4.30859442	     31.96540620	     -8.66902434	      6.13396693	    -64.78110034	      1.72015999	      0.00000000	      0.00000000	      0.00000000	      0.00536625	      0.00000000	     -1.36616026	     -4.93602819	      6.42704749	     -7.93561822
      0.85833333	     -2.35245272	     -7.18091357	      6.59588551	      0.39670833	      0.98853214	      0.23073568	      4.87009445	     14.95356722	      6.34047162	    -15.29779712	     -0.04498210	    -27.63530556	     -4.23037597	     32.55455796	     -8.40022847	      6.22822490	    -64.34991301	      1.36775118	      0.00000000	      0.00000000	      0.00000000	      0.00622422	      0.00000000	     -1.35349312	     -4.90816239	      6.31441341	     -7.82175496
      0.86250000	     -2.35341933	     -7.15265086	      6.38574137	      0.40161772	      0.98919123	      0.23087879	      4.54458442	     14.94748837	      6.31281508	    -15.34060570	     -0.05606446	    -27.62000153	     -4.22010441	     33.10082777	     -8.30730848	      6.28750378	    -63.91929505	      1.01775870	      0.00000000	      0.00000000	      0.00000000	      0.00693671	      0.00000000	     -1.29780624	     -5.05648647	      6.30699504	     -7.80592328
      0.86666667	     -2.52423399	     -7.00367681	      6.28192129	      0.40748501	      0.98984158	      0.23064918	      3.94010309	     14.77183505	      6.64801380	    -14.65160139	     -0.20217780	    -27.49260774	     -4.14707135	     33.71477619	     -7.99468366	      6.37932046	    -63.51058016	      0.48608561	      0.00000000	      0.00000000	      0.00000000	      0.00797907	      0.00000000	     -1.30873842	     -4.81591012	      6.13495544	     -7.63153522
      0.87083333	     -2.60975133	     -6.95329643	      6.11827547	      0.41280968	      0.99043956	      0.23069404	      3.46342366	     14.73650610	      6.90628443	    -14.27678848	     -0.42803823	    -27.46905733	     -4.09461478	     34.27657249	     -7.86248161	      6.44666227	    -63.05477460	      0.01292679	      0.00000000	      0.00000000	      0.00000000	      0.00884905	      0.00000000	     -1.29086921	     -4.78066195	      6.06655833	     -7.48331618
      0.87500000	     -2.61687812	     -6.93455033	      5.95871204	      0.41761382	      0.99098298	      0.23083610	      3.15767465	     14.74661528	      6.89076648	    -14.31128375	     -0.44737932	    -27.47446434	     -4.08970508	     34.82581196	     -7.79949495	      6.48282502	    -62.58421951	     -0.39010703	      0.00000000	      0.00000000	      0.00000000	      0.00977764	      0.00000000	     -1.23015760	     -4.93866917	      6.06742276	     -7.46874794
